# xmcd
#
# Track frame offsets:
#	150
#	13755
#	25628
#	33421
#	44341
#	56596
#	66279
#	77027
#	91345
#	115045
#	124878
#
# Disc length: 1833 seconds
#
# Revision: 0
# Processed by: cddbd v1.5.2PL0 Copyright (c) Steve Scherf et al.
# Submitted via: audiograbber 1.83.01
#
DISCID=8807270b
DTITLE=Jimmy Dean - Greatest Hits
DYEAR=1966
DGENRE=Country
TTITLE0=Big Bad John
TTITLE1=The Cajun Queen
TTITLE2=Harvest of Sunshine
TTITLE3=Little Black Book
TTITLE4=Steel Men
TTITLE5=The First Thing Ev'ry Morning (And The Last Thing Ev'ry Night)
TTITLE6=Sam Hill
TTITLE7=P.T. 109
TTITLE8=To A Sleeping Beauty
TTITLE9=The Farmer and the Lord
TTITLE10=I Won't Go Huntin' with You Jake
EXTD=
EXTT0=
EXTT1=
EXTT2=
EXTT3=
EXTT4=
EXTT5=
EXTT6=
EXTT7=
EXTT8=
EXTT9=
EXTT10=
PLAYORDER=
